<?xml version="1.0" encoding="UTF-8" standalone="no"?>
<svg xmlns="http://www.w3.org/2000/svg" xmlns:xlink="http://www.w3.org/1999/xlink" contentScriptType="application/ecmascript" contentStyleType="text/css" height="319px" preserveAspectRatio="none" style="width:208px;height:319px;" version="1.1" viewBox="0 0 208 319" width="208px" zoomAndPan="magnify"><defs><filter height="300%" id="f1gckzlctxdd9p" width="300%" x="-1" y="-1"><feGaussianBlur result="blurOut" stdDeviation="2.0"/><feColorMatrix in="blurOut" result="blurOut2" type="matrix" values="0 0 0 0 0 0 0 0 0 0 0 0 0 0 0 0 0 0 .4 0"/><feOffset dx="4.0" dy="4.0" in="blurOut2" result="blurOut3"/><feBlend in="SourceGraphic" in2="blurOut3" mode="normal"/></filter></defs><g><!--MD5=[de6a9a2899bdd69e6769c9625d01fbb9]
class NFGame--><rect fill="#FEFECE" filter="url(#f1gckzlctxdd9p)" height="48" id="NFGame" style="stroke:#A80036;stroke-width:1.5;" width="82" x="42.5" y="7"/><ellipse cx="57.5" cy="23" fill="#ADD1B2" rx="11" ry="11" style="stroke:#A80036;stroke-width:1.0;"/><path d="M59.8438,18.6719 C58.9063,18.2344 58.3125,18.0938 57.4375,18.0938 C54.8125,18.0938 52.8125,20.1719 52.8125,22.8906 L52.8125,24.0156 C52.8125,26.5938 54.9219,28.4844 57.8125,28.4844 C59.0313,28.4844 60.1875,28.1875 60.9375,27.6406 C61.5156,27.2344 61.8438,26.7813 61.8438,26.3906 C61.8438,25.9375 61.4531,25.5469 60.9844,25.5469 C60.7656,25.5469 60.5625,25.625 60.375,25.8125 C59.9219,26.2969 59.9219,26.2969 59.7344,26.3906 C59.3125,26.6563 58.625,26.7813 57.8594,26.7813 C55.8125,26.7813 54.5156,25.6875 54.5156,23.9844 L54.5156,22.8906 C54.5156,21.1094 55.7656,19.7969 57.5,19.7969 C58.0781,19.7969 58.6875,19.9531 59.1563,20.2031 C59.6406,20.4844 59.8125,20.7031 59.9063,21.1094 C59.9688,21.5156 60,21.6406 60.1406,21.7656 C60.2813,21.9063 60.5156,22.0156 60.7344,22.0156 C61,22.0156 61.2656,21.875 61.4375,21.6563 C61.5469,21.5 61.5781,21.3125 61.5781,20.8906 L61.5781,19.4688 C61.5781,19.0313 61.5625,18.9063 61.4688,18.75 C61.3125,18.4844 61.0313,18.3438 60.7344,18.3438 C60.4375,18.3438 60.2344,18.4375 60.0156,18.75 L59.8438,18.6719 Z " fill="#000000"/><text fill="#000000" font-family="sans-serif" font-size="12" lengthAdjust="spacing" textLength="50" x="71.5" y="27.1543">NFGame</text><line style="stroke:#A80036;stroke-width:1.5;" x1="43.5" x2="123.5" y1="39" y2="39"/><line style="stroke:#A80036;stroke-width:1.5;" x1="43.5" x2="123.5" y1="47" y2="47"/><!--MD5=[8feab578fe47cdfe895cfbdc62581fac]
class HGGame--><rect fill="#FEFECE" filter="url(#f1gckzlctxdd9p)" height="48" id="HGGame" style="stroke:#A80036;stroke-width:1.5;" width="85" x="7" y="132"/><ellipse cx="22" cy="148" fill="#ADD1B2" rx="11" ry="11" style="stroke:#A80036;stroke-width:1.0;"/><path d="M24.3438,143.6719 C23.4063,143.2344 22.8125,143.0938 21.9375,143.0938 C19.3125,143.0938 17.3125,145.1719 17.3125,147.8906 L17.3125,149.0156 C17.3125,151.5938 19.4219,153.4844 22.3125,153.4844 C23.5313,153.4844 24.6875,153.1875 25.4375,152.6406 C26.0156,152.2344 26.3438,151.7813 26.3438,151.3906 C26.3438,150.9375 25.9531,150.5469 25.4844,150.5469 C25.2656,150.5469 25.0625,150.625 24.875,150.8125 C24.4219,151.2969 24.4219,151.2969 24.2344,151.3906 C23.8125,151.6563 23.125,151.7813 22.3594,151.7813 C20.3125,151.7813 19.0156,150.6875 19.0156,148.9844 L19.0156,147.8906 C19.0156,146.1094 20.2656,144.7969 22,144.7969 C22.5781,144.7969 23.1875,144.9531 23.6563,145.2031 C24.1406,145.4844 24.3125,145.7031 24.4063,146.1094 C24.4688,146.5156 24.5,146.6406 24.6406,146.7656 C24.7813,146.9063 25.0156,147.0156 25.2344,147.0156 C25.5,147.0156 25.7656,146.875 25.9375,146.6563 C26.0469,146.5 26.0781,146.3125 26.0781,145.8906 L26.0781,144.4688 C26.0781,144.0313 26.0625,143.9063 25.9688,143.75 C25.8125,143.4844 25.5313,143.3438 25.2344,143.3438 C24.9375,143.3438 24.7344,143.4375 24.5156,143.75 L24.3438,143.6719 Z " fill="#000000"/><text fill="#000000" font-family="sans-serif" font-size="12" lengthAdjust="spacing" textLength="53" x="36" y="152.1543">HGGame</text><line style="stroke:#A80036;stroke-width:1.5;" x1="8" x2="91" y1="164" y2="164"/><line style="stroke:#A80036;stroke-width:1.5;" x1="8" x2="91" y1="172" y2="172"/><!--MD5=[b213773a681908902eaec131382761f2]
class BGame--><rect fill="#FEFECE" filter="url(#f1gckzlctxdd9p)" height="48" id="BGame" style="stroke:#A80036;stroke-width:1.5;" width="75" x="85" y="257"/><ellipse cx="100" cy="273" fill="#ADD1B2" rx="11" ry="11" style="stroke:#A80036;stroke-width:1.0;"/><path d="M102.3438,268.6719 C101.4063,268.2344 100.8125,268.0938 99.9375,268.0938 C97.3125,268.0938 95.3125,270.1719 95.3125,272.8906 L95.3125,274.0156 C95.3125,276.5938 97.4219,278.4844 100.3125,278.4844 C101.5313,278.4844 102.6875,278.1875 103.4375,277.6406 C104.0156,277.2344 104.3438,276.7813 104.3438,276.3906 C104.3438,275.9375 103.9531,275.5469 103.4844,275.5469 C103.2656,275.5469 103.0625,275.625 102.875,275.8125 C102.4219,276.2969 102.4219,276.2969 102.2344,276.3906 C101.8125,276.6563 101.125,276.7813 100.3594,276.7813 C98.3125,276.7813 97.0156,275.6875 97.0156,273.9844 L97.0156,272.8906 C97.0156,271.1094 98.2656,269.7969 100,269.7969 C100.5781,269.7969 101.1875,269.9531 101.6563,270.2031 C102.1406,270.4844 102.3125,270.7031 102.4063,271.1094 C102.4688,271.5156 102.5,271.6406 102.6406,271.7656 C102.7813,271.9063 103.0156,272.0156 103.2344,272.0156 C103.5,272.0156 103.7656,271.875 103.9375,271.6563 C104.0469,271.5 104.0781,271.3125 104.0781,270.8906 L104.0781,269.4688 C104.0781,269.0313 104.0625,268.9063 103.9688,268.75 C103.8125,268.4844 103.5313,268.3438 103.2344,268.3438 C102.9375,268.3438 102.7344,268.4375 102.5156,268.75 L102.3438,268.6719 Z " fill="#000000"/><text fill="#000000" font-family="sans-serif" font-size="12" lengthAdjust="spacing" textLength="43" x="114" y="277.1543">BGame</text><line style="stroke:#A80036;stroke-width:1.5;" x1="86" x2="159" y1="289" y2="289"/><line style="stroke:#A80036;stroke-width:1.5;" x1="86" x2="159" y1="297" y2="297"/><!--MD5=[b8c4a76f63ba9852ecfd659948fd20d1]
reverse link NFGame to HGGame--><path codeLine="1" d="M27.0895,68.328 C22.4742,73.386 18.4562,78.948 15.5,85 C7.8507,100.66 16.5438,118.312 27.0515,131.972 " fill="none" id="NFGame-backto-HGGame" style="stroke:#A80036;stroke-width:1.0;"/><polygon fill="none" points="22.7097,62.853,42.2621,54.686,32.0705,73.263,22.7097,62.853" style="stroke:#A80036;stroke-width:1.0;"/><text fill="#000000" font-family="sans-serif" font-size="13" lengthAdjust="spacing" textLength="23" x="16.5" y="98.0669">is-a</text><!--MD5=[16452b6850eafca071c7af9b6ca5aedc]
reverse link HGGame to NFGame--><path codeLine="2" d="M59.3958,119.201 C65.1053,98.546 72.1185,73.174 77.1049,55.135 " fill="none" id="HGGame-backto-NFGame" style="stroke:#A80036;stroke-width:1.0;"/><polygon fill="#A80036" points="55.8665,131.968,61.3207,127.2509,59.0642,120.4019,53.61,125.119,55.8665,131.968" style="stroke:#A80036;stroke-width:1.0;"/><text fill="#000000" font-family="sans-serif" font-size="13" lengthAdjust="spacing" textLength="54" x="70.5" y="98.0669">contains</text><!--MD5=[b1a77f480338372fc808a276c18438e2]
reverse link HGGame to BGame--><path codeLine="3" d="M73.4866,197.416 C85.2152,217.1777 98.905,240.244 108.831,256.9684 " fill="none" id="HGGame-backto-BGame" style="stroke:#A80036;stroke-width:1.0;"/><polygon fill="none" points="67.4187,200.907,63.2307,180.135,79.458,193.762,67.4187,200.907" style="stroke:#A80036;stroke-width:1.0;"/><text fill="#000000" font-family="sans-serif" font-size="13" lengthAdjust="spacing" textLength="23" x="91.5" y="223.0669">is-a</text><!--MD5=[0758a90aa882c676d77325450d1c60b8]
reverse link BGame to NFGame--><path codeLine="4" d="M133.289,244.192 C143.459,203.942 154.307,137.377 133.5,85 C129.017,73.714 120.864,63.44 112.426,55.005 " fill="none" id="BGame-backto-NFGame" style="stroke:#A80036;stroke-width:1.0;"/><polygon fill="#A80036" points="129.913,256.7748,135.3313,252.0164,133.0229,245.1848,127.6046,249.9432,129.913,256.7748" style="stroke:#A80036;stroke-width:1.0;"/><text fill="#000000" font-family="sans-serif" font-size="13" lengthAdjust="spacing" textLength="54" x="146.5" y="160.5669">contains</text><!--MD5=[2e55b0a348444efac4a380ee978026a7]
@startuml
NFGame <|- - HGGame : is-a
HGGame *- - NFGame : contains
HGGame <|- - BGame : is-a
BGame *- - NFGame : contains
@enduml

PlantUML version 1.2021.2beta2(Unknown compile time)
(GPL source distribution)
Java Runtime: Java(TM) SE Runtime Environment
JVM: Java HotSpot(TM) 64-Bit Server VM
Default Encoding: UTF-8
Language: en
Country: US
--></g></svg>